<?xml version="1.0" standalone="no"?>
<!DOCTYPE svg PUBLIC "-//W3C//DTD SVG 20010904//EN"
 "http://www.w3.org/TR/2001/REC-SVG-20010904/DTD/svg10.dtd">
<svg version="1.0" xmlns="http://www.w3.org/2000/svg"
 width="2663.000000pt" height="2663.000000pt" viewBox="0 0 2663.000000 2663.000000"
 preserveAspectRatio="xMidYMid meet">

<g transform="translate(0.000000,2663.000000) scale(0.100000,-0.100000)"
fill="#000000" stroke="none">
<path d="M12755 26252 c-754 -437 -10538 -6086 -10752 -6208 l-173 -99 0
-6630 0 -6630 78 -44 c42 -24 2116 -1221 4607 -2659 7322 -4227 6795 -3925
6822 -3913 33 15 9613 5543 10995 6345 l468 271 0 6630 0 6630 -398 229 c-218
126 -2343 1353 -4722 2726 -2379 1373 -4779 2760 -5335 3080 -555 321 -1017
585 -1025 586 -8 2 -262 -139 -565 -314z m1867 -4360 c698 -403 1269 -732
1271 -732 2 0 184 -104 403 -231 219 -128 970 -562 1669 -966 698 -404 1270
-735 1272 -736 1 -2 -572 -335 -1275 -741 -702 -406 -1360 -787 -1462 -846
-101 -60 -188 -106 -193 -103 -4 3 -112 65 -238 138 l-230 133 166 137 c91 76
165 144 165 151 0 7 -12 21 -27 32 -16 10 -471 275 -1013 587 -542 312 -1160
669 -1375 793 -2633 1520 -2935 1696 -2923 1704 7 4 569 329 1248 722 1099
635 1237 712 1255 701 11 -6 590 -341 1287 -743z m-3107 -1172 c737 -425 1594
-920 1905 -1100 311 -179 1032 -596 1603 -925 570 -330 1037 -602 1037 -607 0
-4 -84 -76 -186 -160 -102 -84 -720 -595 -1372 -1136 -795 -658 -1191 -981
-1202 -977 -18 7 -1872 1076 -4613 2659 -694 401 -1272 736 -1284 744 -21 13
29 56 1178 1010 661 548 1280 1063 1377 1144 162 135 178 146 197 134 11 -7
623 -361 1360 -786z m-2845 -2319 c690 -398 1392 -803 1560 -899 168 -96 368
-212 445 -258 77 -46 694 -403 1370 -793 l1230 -710 3 -3421 c1 -2216 -1
-3420 -8 -3418 -5 1 -1339 770 -2964 1708 l-2955 1705 -1 3423 0 3424 33 -19
c17 -11 597 -345 1287 -742z m10610 -2663 l-1 -3423 -2955 -1705 c-1625 -938
-2959 -1706 -2964 -1708 -7 -2 -10 1197 -10 3416 l0 3420 1183 682 c650 376
1256 727 1347 780 91 54 284 166 430 250 146 83 393 225 550 315 157 90 764
441 1350 779 586 339 1066 616 1068 616 1 0 2 -1540 2 -3422z m-4868 -8733 l3
-574 295 314 295 315 148 0 c82 0 147 -4 145 -9 -1 -5 -114 -129 -251 -275
l-247 -267 23 -32 c60 -80 507 -717 507 -722 0 -3 -65 -5 -144 -5 l-145 0
-207 300 c-137 198 -212 297 -220 292 -6 -4 -55 -48 -108 -99 l-96 -92 0 -201
0 -200 -140 0 -140 0 0 915 0 915 140 0 140 0 2 -575z m-4901 515 c92 -17 195
-75 274 -154 116 -117 175 -257 175 -415 0 -269 -169 -504 -405 -566 -46 -12
-119 -15 -332 -15 l-273 0 0 -310 0 -310 -140 0 -140 0 0 890 0 890 394 0
c219 0 417 -4 447 -10z m3940 0 c155 -29 313 -156 386 -310 51 -107 64 -161
64 -266 0 -224 -119 -426 -306 -522 -94 -47 -131 -52 -427 -52 l-278 0 0 -310
0 -310 -140 0 -140 0 0 890 0 890 394 0 c219 0 417 -4 447 -10z m2710 -469
c73 -29 182 -112 236 -179 l43 -53 0 121 0 120 120 0 120 0 0 -680 c0 -457 -4
-696 -11 -732 -28 -135 -140 -282 -269 -355 -232 -132 -597 -132 -818 -1 -66
39 -195 161 -190 180 2 7 35 44 74 81 l72 68 51 -54 c103 -109 250 -162 426
-155 162 7 268 61 333 168 46 77 52 107 58 265 l5 140 -22 -30 c-158 -212
-457 -277 -693 -152 -122 65 -241 205 -293 347 -51 138 -56 337 -13 475 69
221 226 383 426 440 77 22 274 14 345 -14z m1487 13 c86 -17 240 -87 290 -130
l33 -29 -59 -81 -58 -82 -59 39 c-118 78 -266 115 -385 99 -69 -10 -86 -17
-129 -48 -60 -44 -79 -137 -42 -198 25 -41 81 -67 226 -105 358 -92 462 -145
520 -264 24 -49 27 -63 23 -147 -3 -75 -8 -104 -30 -150 -49 -106 -151 -182
-294 -218 -139 -36 -363 -24 -514 27 -73 25 -189 85 -228 119 l-36 31 42 70
c69 113 54 109 155 48 49 -29 128 -66 175 -82 75 -24 103 -28 202 -28 103 0
120 3 164 25 57 30 84 61 96 114 11 50 -4 99 -40 130 -38 31 -98 54 -317 116
-98 28 -210 67 -250 86 -84 40 -144 102 -163 169 -19 68 -8 191 23 259 49 106
170 198 305 230 79 20 256 19 350 0z m-7116 -529 c109 -286 199 -523 200 -528
2 -4 83 231 182 523 l179 530 132 0 132 0 -298 -809 c-164 -445 -309 -831
-322 -858 -26 -51 -97 -124 -159 -161 -54 -33 -169 -55 -248 -47 -102 11 -100
7 -100 141 l0 115 78 -6 c128 -12 157 14 231 203 23 56 41 107 41 112 0 6
-119 300 -265 655 -146 354 -265 647 -265 650 0 3 64 4 142 3 l142 -3 198
-520z m1726 -97 l-3 -123 -375 0 -375 0 -3 123 -3 122 381 0 381 0 -3 -122z"/>
<path d="M9440 16288 c-85 -44 -85 -44 -88 -343 l-3 -264 38 -24 c21 -13 239
-140 486 -281 l447 -259 0 -69 0 -70 -32 20 c-118 71 -1372 791 -1412 810 -67
32 -180 55 -236 47 -201 -28 -302 -219 -317 -600 -19 -501 118 -948 376 -1227
80 -87 124 -118 338 -242 l178 -103 6 286 c6 311 11 343 68 432 21 35 44 54
85 74 51 25 64 27 126 22 45 -4 99 -18 152 -39 46 -19 317 -169 603 -335 542
-313 581 -334 676 -358 147 -38 258 -4 309 95 36 69 40 141 40 639 0 545 -1
555 -70 697 -107 222 -354 468 -688 688 -508 332 -920 486 -1082 404z m317
-259 c133 -64 231 -282 158 -354 -92 -93 -318 99 -320 271 0 96 65 130 162 83z"/>
<path d="M16965 16281 c-122 -19 -262 -70 -445 -161 -572 -285 -1003 -643
-1134 -944 l-31 -71 -3 -269 c-3 -227 -1 -268 11 -263 7 3 216 122 463 264
247 143 459 265 472 272 22 12 22 11 22 -56 l0 -68 -682 -394 c-376 -217 -714
-415 -753 -440 -197 -129 -381 -387 -474 -666 -119 -356 -121 -887 -4 -1133
32 -68 93 -136 148 -165 50 -27 177 -30 243 -5 23 9 128 64 232 124 l190 108
0 252 c0 139 5 287 11 330 19 139 84 306 168 434 49 74 180 210 260 269 36 27
296 181 578 344 281 162 540 315 575 338 82 56 226 195 288 279 62 84 122 202
151 300 22 73 23 89 27 600 4 561 2 587 -45 649 -46 60 -155 89 -268 72z
m-1057 -881 c62 -58 33 -187 -66 -292 -56 -60 -107 -88 -162 -88 -160 0 -80
292 105 380 52 25 96 25 123 0z"/>
<path d="M8950 6950 l0 -330 248 0 c146 0 263 5 286 11 53 15 129 88 156 152
45 103 43 243 -4 336 -14 27 -46 67 -72 90 -73 64 -110 71 -381 71 l-233 0 0
-330z"/>
<path d="M12890 6949 l0 -330 268 3 267 3 45 27 c135 79 188 302 110 463 -12
24 -43 63 -69 88 -75 70 -111 77 -388 77 l-233 0 0 -331z"/>
<path d="M15973 6839 c-161 -21 -294 -174 -324 -371 -53 -338 274 -608 561
-463 71 36 144 106 175 168 24 48 25 59 25 219 0 187 -1 191 -70 284 -90 120
-229 182 -367 163z"/>
</g>
</svg>
